<svg xmlns="http://www.w3.org/2000/svg" xmlns:xlink="http://www.w3.org/1999/xlink" width="128.327" height="44.658" viewBox="0 0 128.327 44.658">
  <defs>
    <clipPath id="clip-path">
      <rect id="Rectángulo_2284" data-name="Rectángulo 2284" width="128.327" height="44.658" fill="none"/>
    </clipPath>
  </defs>
  <g id="Grupo_2502" data-name="Grupo 2502" transform="translate(0 0)">
    <g id="Grupo_2501" data-name="Grupo 2501" transform="translate(0 0)" clip-path="url(#clip-path)">
      <path id="Trazado_97" data-name="Trazado 97" d="M97.372,34.319a2.292,2.292,0,0,1,1.214-.337,2.792,2.792,0,0,1,1.8.645,2,2,0,0,1,.8,1.627,2.23,2.23,0,0,1-.248.981L93.644,52.522a2.579,2.579,0,0,1-1.077,1.164,3.147,3.147,0,0,1-3.094,0A2.567,2.567,0,0,1,88.4,52.522L81.1,37.235a2.2,2.2,0,0,1-.221-.981,2,2,0,0,1,.829-1.613,2.9,2.9,0,0,1,1.85-.659,2.365,2.365,0,0,1,1.229.337,2.19,2.19,0,0,1,.87,1.01L91.1,47.277l5.414-11.949a2.206,2.206,0,0,1,.857-1.01" transform="translate(-22.599 -9.495)" fill="#fff"/>
      <path id="Trazado_98" data-name="Trazado 98" d="M112.146,53.4a2.544,2.544,0,0,1-.677-1.868V36.51a2.508,2.508,0,0,1,.677-1.84,2.461,2.461,0,0,1,1.837-.688,2.545,2.545,0,0,1,1.878.688,2.482,2.482,0,0,1,.69,1.84V51.536a2.379,2.379,0,0,1-2.568,2.556,2.458,2.458,0,0,1-1.837-.688" transform="translate(-31.145 -9.495)" fill="#fff"/>
      <path id="Trazado_99" data-name="Trazado 99" d="M123.843,53.464a2.48,2.48,0,0,1-.607-1.8V36.405a2.481,2.481,0,0,1,.607-1.8,2.312,2.312,0,0,1,1.74-.627h5.579a11.937,11.937,0,0,1,5.566,1.212,8.42,8.42,0,0,1,3.576,3.466,10.934,10.934,0,0,1,1.243,5.363,11.187,11.187,0,0,1-1.229,5.405,8.224,8.224,0,0,1-3.563,3.466,12.119,12.119,0,0,1-5.593,1.2h-5.579a2.312,2.312,0,0,1-1.74-.628m6.96-3.594a5.75,5.75,0,0,0,4.267-1.44,6.044,6.044,0,0,0,1.422-4.407,5.993,5.993,0,0,0-1.422-4.393A5.785,5.785,0,0,0,130.8,38.2h-2.486V49.87Z" transform="translate(-34.433 -9.494)" fill="#fff"/>
      <path id="Trazado_100" data-name="Trazado 100" d="M170.2,51.867a2.029,2.029,0,0,1-.732,1.578,2.45,2.45,0,0,1-1.67.647,2.094,2.094,0,0,1-1.16-.338,2.267,2.267,0,0,1-.829-1.014L164.569,49.9H155.62l-1.271,2.845a2.235,2.235,0,0,1-.842,1.014,2.167,2.167,0,0,1-1.175.338,2.554,2.554,0,0,1-1.7-.647,2,2,0,0,1-.76-1.578,2.464,2.464,0,0,1,.249-1.042l7.292-15.266a2.594,2.594,0,0,1,1.064-1.169,3.153,3.153,0,0,1,3.107,0,2.58,2.58,0,0,1,1.077,1.169l7.291,15.266a2.464,2.464,0,0,1,.249,1.042m-7.346-5.858-2.762-6.281-2.762,6.281Z" transform="translate(-41.876 -9.494)" fill="#fff"/>
      <path id="Trazado_101" data-name="Trazado 101" d="M83.325,9.546A4.25,4.25,0,0,1,81.6,7.778a5.663,5.663,0,0,1-.61-2.694A5.632,5.632,0,0,1,81.6,2.4,4.25,4.25,0,0,1,83.325.636a5.729,5.729,0,0,1,5.732.323,1.091,1.091,0,0,1,.344.365,1.062,1.062,0,0,1,.105.505,1.128,1.128,0,0,1-.246.737.743.743,0,0,1-.6.3,1.064,1.064,0,0,1-.379-.063,2.218,2.218,0,0,1-.393-.2,4.017,4.017,0,0,0-.926-.421,3.2,3.2,0,0,0-.9-.126,2.258,2.258,0,0,0-1.859.75,3.569,3.569,0,0,0-.61,2.281,3.592,3.592,0,0,0,.61,2.294,2.254,2.254,0,0,0,1.859.751A2.505,2.505,0,0,0,86.883,8q.392-.133,1.01-.414c.2-.1.342-.172.435-.21a.886.886,0,0,1,.337-.057.744.744,0,0,1,.6.3,1.128,1.128,0,0,1,.246.737.955.955,0,0,1-.449.87,5.734,5.734,0,0,1-5.732.323" transform="translate(-22.629 -0.005)" fill="#fff"/>
      <path id="Trazado_102" data-name="Trazado 102" d="M95.23,9.538a4.253,4.253,0,0,1-1.719-1.768,5.684,5.684,0,0,1-.6-2.687,5.683,5.683,0,0,1,.6-2.688A4.212,4.212,0,0,1,95.23.635a5.913,5.913,0,0,1,5.262,0A4.175,4.175,0,0,1,102.2,2.4a5.733,5.733,0,0,1,.6,2.688,5.684,5.684,0,0,1-.6,2.687,4.256,4.256,0,0,1-1.719,1.768,5.823,5.823,0,0,1-5.248,0m4.385-2.147a3.64,3.64,0,0,0,.631-2.308,3.579,3.579,0,0,0-.638-2.3,2.35,2.35,0,0,0-3.5-.007,3.6,3.6,0,0,0-.631,2.309A3.636,3.636,0,0,0,96.106,7.4a2.343,2.343,0,0,0,3.509-.007" transform="translate(-25.959 -0.004)" fill="#fff"/>
      <path id="Trazado_103" data-name="Trazado 103" d="M108.093,9.849a1.254,1.254,0,0,1-.308-.914V1.3a1.276,1.276,0,0,1,.344-.935,1.246,1.246,0,0,1,.933-.351,1.289,1.289,0,0,1,.954.351,1.263,1.263,0,0,1,.351.935v6.73h3.228q1.221,0,1.221,1.072a.993.993,0,0,1-.3.8,1.39,1.39,0,0,1-.919.257h-4.617a1.183,1.183,0,0,1-.884-.314" transform="translate(-30.116 -0.004)" fill="#fff"/>
      <path id="Trazado_104" data-name="Trazado 104" d="M119.123,9.538A4.256,4.256,0,0,1,117.4,7.771a5.684,5.684,0,0,1-.6-2.687,5.683,5.683,0,0,1,.6-2.688A4.215,4.215,0,0,1,119.123.635a5.914,5.914,0,0,1,5.262,0A4.175,4.175,0,0,1,126.1,2.4a5.733,5.733,0,0,1,.6,2.688,5.683,5.683,0,0,1-.6,2.687,4.256,4.256,0,0,1-1.719,1.768,5.824,5.824,0,0,1-5.249,0m4.386-2.147a3.64,3.64,0,0,0,.631-2.308,3.579,3.579,0,0,0-.638-2.3,2.35,2.35,0,0,0-3.5-.007,3.6,3.6,0,0,0-.631,2.309A3.636,3.636,0,0,0,120,7.4a2.343,2.343,0,0,0,3.509-.007" transform="translate(-32.635 -0.004)" fill="#fff"/>
      <path id="Trazado_105" data-name="Trazado 105" d="M141.344.372a1.281,1.281,0,0,1,.337.922V9a1.158,1.158,0,0,1-.308.85,1.21,1.21,0,0,1-1.621,0,1.139,1.139,0,0,1-.316-.85V4.837l-1.6,2.976a1.824,1.824,0,0,1-.505.646,1.139,1.139,0,0,1-1.262,0,1.824,1.824,0,0,1-.505-.646l-1.586-2.891V9a1.146,1.146,0,0,1-.316.843,1.209,1.209,0,0,1-1.628.007,1.142,1.142,0,0,1-.316-.85V1.293a1.265,1.265,0,0,1,.344-.922,1.23,1.23,0,0,1,1.564-.135,1.722,1.722,0,0,1,.52.631l2.582,4.9L139.3.868a1.314,1.314,0,0,1,1.178-.85,1.149,1.149,0,0,1,.87.354" transform="translate(-36.803 -0.005)" fill="#fff"/>
      <path id="Trazado_106" data-name="Trazado 106" d="M155.072,5.8a2.625,2.625,0,0,1,.463,1.578,2.536,2.536,0,0,1-.427,1.463,2.781,2.781,0,0,1-1.221.973,4.613,4.613,0,0,1-1.858.346h-3.733a1.179,1.179,0,0,1-.884-.317,1.246,1.246,0,0,1-.308-.908V1.225a1.246,1.246,0,0,1,.308-.908A1.176,1.176,0,0,1,148.295,0h3.593a3.934,3.934,0,0,1,2.477.713,2.309,2.309,0,0,1,.919,1.923,2.386,2.386,0,0,1-.407,1.377,2.315,2.315,0,0,1-1.136.872,2.516,2.516,0,0,1,1.333.915m-5.458-1.809h1.838a1.929,1.929,0,0,0,1.066-.231.829.829,0,0,0,.337-.736.9.9,0,0,0-.337-.778A1.834,1.834,0,0,0,151.452,2h-1.838ZM152.806,7.9a.977.977,0,0,0,.329-.829.977.977,0,0,0-.329-.829A1.849,1.849,0,0,0,151.7,6h-2.09V8.157h2.09a1.849,1.849,0,0,0,1.1-.252" transform="translate(-41.101 0)" fill="#fff"/>
      <path id="Trazado_107" data-name="Trazado 107" d="M160.007,9.813a1.284,1.284,0,0,1-.344-.944V1.277a1.262,1.262,0,0,1,.344-.929A1.25,1.25,0,0,1,160.94,0a1.292,1.292,0,0,1,.954.348,1.247,1.247,0,0,1,.351.929V8.869a1.268,1.268,0,0,1-.351.944,1.3,1.3,0,0,1-.954.347,1.255,1.255,0,0,1-.933-.347" transform="translate(-44.611 0)" fill="#fff"/>
      <path id="Trazado_108" data-name="Trazado 108" d="M174.08,9.037a1.024,1.024,0,0,1-.372.8,1.251,1.251,0,0,1-.849.326,1.068,1.068,0,0,1-.589-.17,1.145,1.145,0,0,1-.421-.513l-.631-1.437h-4.547l-.646,1.437a1.135,1.135,0,0,1-.428.513,1.1,1.1,0,0,1-.6.17,1.3,1.3,0,0,1-.863-.326,1.01,1.01,0,0,1-.386-.8,1.237,1.237,0,0,1,.127-.527L167.583.8a1.318,1.318,0,0,1,.54-.591,1.615,1.615,0,0,1,1.579,0A1.307,1.307,0,0,1,170.25.8l3.7,7.713a1.236,1.236,0,0,1,.126.527m-3.733-2.96-1.4-3.173-1.4,3.173Z" transform="translate(-45.754 0)" fill="#fff"/>
      <path id="Trazado_109" data-name="Trazado 109" d="M81.306,26.393a.39.39,0,0,1-.1-.281V20.328a.353.353,0,0,1,.106-.267.389.389,0,0,1,.281-.1h2.181a2.326,2.326,0,0,1,1.587.5,1.775,1.775,0,0,1,.566,1.409,1.8,1.8,0,0,1-.571,1.419,2.3,2.3,0,0,1-1.583.507H81.959v2.32a.39.39,0,0,1-.1.281.415.415,0,0,1-.552,0M83.7,23.164q1.482,0,1.482-1.3,0-1.28-1.482-1.28h-1.74v2.578Z" transform="translate(-22.689 -5.577)" fill="#fff"/>
      <path id="Trazado_110" data-name="Trazado 110" d="M90.087,26.1a2.633,2.633,0,0,1-1.026-1.134,3.9,3.9,0,0,1-.359-1.732,4,4,0,0,1,.355-1.746,2.562,2.562,0,0,1,1.022-1.134,3.352,3.352,0,0,1,3.157,0,2.571,2.571,0,0,1,1.022,1.134,3.987,3.987,0,0,1,.354,1.737,3.936,3.936,0,0,1-.359,1.737A2.624,2.624,0,0,1,93.226,26.1a3.285,3.285,0,0,1-3.139,0m3.176-.921a2.961,2.961,0,0,0,.575-1.955,2.96,2.96,0,0,0-.57-1.95,2.237,2.237,0,0,0-3.217,0,2.945,2.945,0,0,0-.575,1.946,2.964,2.964,0,0,0,.575,1.951,2.22,2.22,0,0,0,3.212,0" transform="translate(-24.784 -5.576)" fill="#fff"/>
      <path id="Trazado_111" data-name="Trazado 111" d="M99.286,26.393a.38.38,0,0,1-.106-.281V20.6H97.2a.375.375,0,0,1-.258-.083.359.359,0,0,1,0-.479.371.371,0,0,1,.258-.083h4.722a.369.369,0,0,1,.257.083.357.357,0,0,1,0,.479.373.373,0,0,1-.257.083H99.944v5.507a.392.392,0,0,1-.1.281.367.367,0,0,1-.276.106.383.383,0,0,1-.281-.106" transform="translate(-27.061 -5.577)" fill="#fff"/>
      <path id="Trazado_112" data-name="Trazado 112" d="M105.336,26.4a.356.356,0,0,1-.106-.269v-5.8a.358.358,0,0,1,.106-.27.389.389,0,0,1,.281-.1h3.442a.373.373,0,0,1,.258.084.3.3,0,0,1,.092.231.3.3,0,0,1-.092.233.373.373,0,0,1-.258.084h-3.083v2.271h2.9a.37.37,0,0,1,.258.084.338.338,0,0,1,0,.464.37.37,0,0,1-.258.084h-2.9v2.374h3.083a.386.386,0,0,1,.258.079.3.3,0,0,1,.092.236.3.3,0,0,1-.092.232.373.373,0,0,1-.258.083h-3.442a.389.389,0,0,1-.281-.1" transform="translate(-29.402 -5.577)" fill="#fff"/>
      <path id="Trazado_113" data-name="Trazado 113" d="M117.452,20.064a.411.411,0,0,1,.092.279v5.771a.4.4,0,0,1-.1.279.351.351,0,0,1-.272.105.386.386,0,0,1-.3-.156l-3.819-5.075v4.847a.4.4,0,0,1-.1.279.34.34,0,0,1-.262.105.325.325,0,0,1-.258-.105.408.408,0,0,1-.092-.279V20.343a.4.4,0,0,1,.1-.279.352.352,0,0,1,.272-.105.391.391,0,0,1,.313.156l3.811,5.075V20.343a.4.4,0,0,1,.1-.279.338.338,0,0,1,.262-.105.324.324,0,0,1,.257.105" transform="translate(-31.39 -5.576)" fill="#fff"/>
      <path id="Trazado_114" data-name="Trazado 114" d="M122.532,26.106a2.616,2.616,0,0,1-1.035-1.134,4.358,4.358,0,0,1,0-3.483,2.616,2.616,0,0,1,1.035-1.134,3.088,3.088,0,0,1,1.593-.394,3.456,3.456,0,0,1,1.164.195,2.854,2.854,0,0,1,.953.558.423.423,0,0,1,.147.317.36.36,0,0,1-.073.223.218.218,0,0,1-.175.1.528.528,0,0,1-.267-.1,3.46,3.46,0,0,0-.851-.509,2.485,2.485,0,0,0-.879-.145,2.025,2.025,0,0,0-1.643.685,2.944,2.944,0,0,0-.575,1.946,2.961,2.961,0,0,0,.575,1.955,2.025,2.025,0,0,0,1.643.685,2.48,2.48,0,0,0,.875-.146,3.4,3.4,0,0,0,.855-.508.53.53,0,0,1,.267-.1.221.221,0,0,1,.175.091.353.353,0,0,1,.073.227.423.423,0,0,1-.147.318,2.852,2.852,0,0,1-.953.558,3.456,3.456,0,0,1-1.164.195,3.088,3.088,0,0,1-1.593-.394" transform="translate(-33.845 -5.577)" fill="#fff"/>
      <path id="Trazado_115" data-name="Trazado 115" d="M129.894,26.393a.385.385,0,0,1-.1-.279V20.344a.385.385,0,0,1,.1-.279.415.415,0,0,1,.552,0,.385.385,0,0,1,.1.279v5.771a.385.385,0,0,1-.1.279.415.415,0,0,1-.552,0" transform="translate(-36.265 -5.577)" fill="#fff"/>
      <path id="Trazado_116" data-name="Trazado 116" d="M138.158,26.179a.289.289,0,0,1-.106.228.376.376,0,0,1-.253.091.325.325,0,0,1-.322-.218l-.654-1.48h-3.47l-.663,1.48a.325.325,0,0,1-.322.218.382.382,0,0,1-.258-.1.3.3,0,0,1-.11-.233.326.326,0,0,1,.037-.146l2.632-5.807a.4.4,0,0,1,.166-.192.482.482,0,0,1,.488,0,.427.427,0,0,1,.166.187l2.632,5.807a.343.343,0,0,1,.037.156m-1.611-2L135.084,20.9l-1.454,3.279Z" transform="translate(-36.882 -5.577)" fill="#fff"/>
      <path id="Trazado_117" data-name="Trazado 117" d="M144.79,26.4a.358.358,0,0,1-.105-.269v-5.8a.361.361,0,0,1,.105-.27.389.389,0,0,1,.281-.1h1.8a3.276,3.276,0,1,1,0,6.54h-1.8a.389.389,0,0,1-.281-.1m2.03-.548q2.522,0,2.522-2.625t-2.522-2.616h-1.381v5.242Z" transform="translate(-40.426 -5.577)" fill="#fff"/>
      <path id="Trazado_118" data-name="Trazado 118" d="M153.91,26.4a.356.356,0,0,1-.106-.269v-5.8a.359.359,0,0,1,.106-.27.389.389,0,0,1,.281-.1h3.442a.373.373,0,0,1,.258.084.34.34,0,0,1,0,.464.373.373,0,0,1-.258.084H154.55v2.273h2.9a.37.37,0,0,1,.258.083.339.339,0,0,1,0,.465.37.37,0,0,1-.258.083h-2.9V25.87h3.083a.39.39,0,0,1,.258.079.346.346,0,0,1,0,.469.373.373,0,0,1-.258.083h-3.442a.389.389,0,0,1-.281-.1" transform="translate(-42.974 -5.577)" fill="#fff"/>
      <path id="Trazado_119" data-name="Trazado 119" d="M164,26.4a.327.327,0,0,1-.106-.254v-5.8a.391.391,0,0,1,.1-.281.415.415,0,0,1,.552,0,.391.391,0,0,1,.1.281v5.509h2.973a.375.375,0,0,1,.258.083.357.357,0,0,1,0,.479.371.371,0,0,1-.258.083h-3.359a.372.372,0,0,1-.262-.1" transform="translate(-45.793 -5.577)" fill="#fff"/>
      <path id="Trazado_120" data-name="Trazado 120" d="M175.7,26.179a.289.289,0,0,1-.106.228.376.376,0,0,1-.253.091.325.325,0,0,1-.322-.218l-.654-1.48h-3.47l-.663,1.48a.325.325,0,0,1-.322.218.382.382,0,0,1-.258-.1.3.3,0,0,1-.11-.233.326.326,0,0,1,.037-.146l2.632-5.807a.392.392,0,0,1,.166-.192.482.482,0,0,1,.488,0,.427.427,0,0,1,.166.187l2.632,5.807a.343.343,0,0,1,.037.156m-1.611-2L172.623,20.9l-1.454,3.279Z" transform="translate(-47.371 -5.577)" fill="#fff"/>
      <path id="Trazado_121" data-name="Trazado 121" d="M45.187,26.586c-.486,6.907,5.207,11.5,10.973,14.764a.646.646,0,0,0,.965-.561V38.066a.92.92,0,0,0-.592-.861c-3.876-1.471-6.714-5.388-6.5-9.381A10.12,10.12,0,0,1,56.6,19.142a.806.806,0,0,0,.527-.759V15.951a.494.494,0,0,0-.77-.411c-1.928,1.308-3.988,2.446-5.941,3.732-2.665,1.755-5,4.081-5.227,7.313" transform="translate(-12.617 -4.318)" fill="#e8a045"/>
      <path id="Trazado_122" data-name="Trazado 122" d="M31.461,19.5a10.684,10.684,0,0,0-1.583,6.368,11.082,11.082,0,0,0,2.786,5.709,47.08,47.08,0,0,0,10.908,9.136,58.714,58.714,0,0,0,7.179,3.863c.022.01.154.043.26.067a.786.786,0,0,0,.243.014l.574-.056a1.014,1.014,0,0,0,1.015-1.015,1.131,1.131,0,0,0-.625-1.011l-.022-.011A42.779,42.779,0,0,1,41.96,35.819C36.876,31,34.017,23.388,37.5,16.963c3.006-5.549,9.739-7.287,14.17-11.455.048-.045.1-.088.146-.128a2.885,2.885,0,0,0,1.028-2.24V.62A.615.615,0,0,0,52.227,0a1.3,1.3,0,0,0-.811.285Q46.533,4.215,41.889,8.4c-3.707,3.351-7.941,6.784-10.428,11.1" transform="translate(-8.335 -0.001)" fill="#e8a045"/>
      <path id="Trazado_123" data-name="Trazado 123" d="M18.934,32.38c-3.132-4.8-2.859-10.362-.055-15.239,3.441-5.984,9.624-10.77,14.542-15.1.586-.516,1.154-.935,1.756-1.394a.356.356,0,0,0-.213-.641H7.011A7.011,7.011,0,0,0,0,7.017V37.589A7.011,7.011,0,0,0,7.01,44.6H31.331a.356.356,0,0,0,.2-.652q-.407-.27-.81-.548c-4.38-3.028-8.9-6.6-11.787-11.019" transform="translate(0 -0.001)" fill="#e8a045"/>
      <path id="Trazado_124" data-name="Trazado 124" d="M58.731,32.435c.008-.045.02-.09.03-.136.007-.076.006-.068-.03.136" transform="translate(-16.41 -9.012)" fill="#e8a045"/>
      <path id="Trazado_125" data-name="Trazado 125" d="M58.752,33.753c-.009-.048-.022-.1-.029-.143.027.187.032.2.029.143" transform="translate(-16.408 -9.391)" fill="#e8a045"/>
      <path id="Trazado_126" data-name="Trazado 126" d="M62.328,28.164a3.377,3.377,0,1,1-4.406,1.842,3.376,3.376,0,0,1,4.406-1.842" transform="translate(-16.113 -7.798)" fill="#e8a045"/>
    </g>
  </g>
</svg>
